<?xml version="1.0" standalone="no"?>
<!DOCTYPE svg PUBLIC "-//W3C//DTD SVG 20010904//EN"
 "http://www.w3.org/TR/2001/REC-SVG-20010904/DTD/svg10.dtd">
<svg version="1.0" xmlns="http://www.w3.org/2000/svg"
 width="300.000000pt" height="348.000000pt" viewBox="0 0 300.000000 348.000000"
 preserveAspectRatio="xMidYMid meet">
<metadata>
Created by potrace 1.10, written by Peter Selinger 2001-2011
</metadata>
<g transform="translate(0.000000,348.000000) scale(0.100000,-0.100000)"
fill="#000000" stroke="none">
<path d="M1400 3205 c0 -139 -4 -223 -11 -239 -8 -16 -27 -31 -53 -40 -23 -8
-34 -15 -26 -15 9 -1 32 8 53 18 20 10 37 17 37 14 0 -19 -26 -43 -56 -53 -34
-11 -38 -11 -61 14 -27 30 -27 30 -55 15 -13 -7 -18 -7 -14 -1 12 20 -16 24
-54 7 -32 -14 -45 -15 -71 -6 -44 15 -42 16 -79 -36 -19 -27 -53 -70 -77 -98
-41 -47 -55 -74 -33 -60 6 3 10 -1 10 -9 0 -19 -17 -30 -23 -14 -2 7 -4 -2 -5
-20 -1 -32 1 -30 45 37 24 39 46 77 47 84 1 7 17 34 36 61 34 47 35 48 80 41
40 -6 156 -40 203 -60 33 -14 16 10 -23 33 -22 13 -38 28 -34 33 4 7 14 3 28
-9 27 -25 60 -42 111 -58 l40 -13 -49 0 c-28 -1 -75 -6 -107 -13 -45 -9 -72
-9 -128 2 l-71 13 -29 -27 c-16 -15 -37 -45 -46 -67 -10 -21 -20 -38 -22 -36
-10 11 42 98 73 122 32 25 41 27 88 21 28 -4 70 -10 94 -13 70 -9 48 13 -30
31 -40 10 -81 20 -92 23 -11 3 -16 1 -12 -5 3 -5 -16 -18 -42 -29 -39 -16 -49
-27 -61 -59 -16 -45 -89 -154 -102 -151 -11 3 -79 -106 -72 -117 3 -5 1 -6 -5
-2 -11 6 -16 -6 -13 -26 0 -5 -4 -7 -10 -5 -6 1 -14 -4 -17 -12 -3 -9 0 -11 8
-6 9 5 11 4 6 -4 -4 -6 -11 -9 -16 -6 -20 13 -148 -241 -136 -271 3 -8 2 -12
-4 -9 -5 3 -14 -14 -20 -37 -6 -24 -21 -79 -33 -123 -31 -114 -31 -380 1 -540
12 -60 47 -240 78 -400 58 -302 84 -420 103 -469 17 -42 68 -104 114 -137 51
-37 69 -37 34 -1 -15 15 -29 42 -33 59 -5 26 0 37 31 72 23 25 49 43 69 46
l32 7 1 146 c0 121 4 157 21 207 25 74 67 179 89 223 14 27 14 40 5 85 -7 28
-14 66 -16 82 -3 17 -3 -8 -1 -55 2 -47 1 -76 -2 -65 -10 40 -23 39 -23 -2 0
-25 -6 -46 -16 -54 -17 -14 -16 -16 -61 61 -15 25 -30 47 -33 50 -4 3 -30 50
-59 105 -30 55 -57 105 -61 110 -15 21 -21 65 -8 65 20 1 -23 30 -44 30 -31 0
-41 39 -28 106 46 227 50 271 25 271 -10 0 -15 -11 -16 -36 0 -20 -8 -58 -18
-86 l-18 -50 -13 55 c-7 30 -22 78 -33 105 -28 72 -26 152 9 234 15 36 32 73
39 81 6 8 32 49 58 90 52 85 138 181 145 162 2 -7 -1 -27 -7 -44 -6 -17 -11
-45 -11 -62 0 -17 -9 -45 -19 -62 -10 -17 -22 -46 -26 -64 -8 -35 -26 -60 -43
-60 -5 0 -18 -17 -27 -37 -27 -56 -23 -190 7 -237 23 -35 38 -45 38 -26 0 6
-4 10 -9 10 -16 0 -33 97 -28 158 6 68 13 86 57 127 18 17 36 39 40 50 41 99
57 144 49 140 -18 -12 -8 31 21 92 25 52 36 63 68 74 22 7 31 14 22 17 -33 10
-38 22 -28 60 15 54 45 92 74 92 15 0 24 -6 24 -15 0 -18 17 -20 22 -3 3 8 9
8 22 1 13 -7 15 -13 7 -17 -6 -4 -11 -12 -11 -18 0 -7 6 -6 15 2 8 7 15 18 15
25 0 15 64 25 184 26 67 1 82 4 56 9 -21 5 -27 8 -15 10 12 1 4 7 -22 13 -39
11 -41 13 -27 31 8 11 15 16 16 10 1 -5 4 25 7 66 l6 75 19 -62 c11 -34 23
-60 27 -57 5 2 16 -7 25 -21 11 -18 24 -25 36 -22 10 3 22 -2 28 -11 9 -15 12
-14 28 8 9 13 32 40 49 60 l33 35 0 -38 c0 -21 4 -36 9 -33 7 5 21 -14 21 -29
0 -2 -25 -9 -56 -15 -40 -8 -53 -15 -43 -21 15 -9 286 -13 277 -3 -4 3 -64 6
-135 6 -70 1 -119 3 -108 5 32 7 164 53 200 70 26 12 38 13 61 4 27 -11 28
-11 3 -6 -16 3 -50 -6 -85 -21 -60 -25 -55 -26 49 -3 41 9 61 9 68 2 8 -8 -8
-13 -55 -18 -84 -9 -75 -27 12 -24 58 1 75 -3 127 -30 41 -22 52 -30 33 -28
-16 2 -25 0 -21 -5 3 -6 18 -8 33 -4 24 4 29 1 40 -27 6 -18 18 -48 26 -67
l15 -35 -20 25 c-12 14 -21 21 -21 15 0 -14 37 -75 63 -102 11 -13 17 -23 12
-23 -13 0 -128 130 -175 199 -32 46 -52 66 -68 67 -19 1 -19 1 -2 -3 11 -2 32
-25 47 -51 15 -26 42 -67 60 -91 18 -24 33 -56 33 -70 l0 -26 -20 30 c-31 47
-23 10 11 -50 17 -31 29 -61 26 -69 -10 -26 30 -142 71 -206 54 -84 55 -67 1
21 -30 51 -44 88 -55 151 -17 89 -19 126 -11 135 7 6 107 -94 107 -107 0 -5 3
-10 8 -12 20 -9 109 -127 119 -158 27 -83 51 -287 30 -258 -5 8 -6 -3 -1 -27
3 -22 10 -65 15 -95 5 -37 7 1 5 120 l-2 175 37 -149 c35 -141 73 -246 90
-246 4 0 15 -22 24 -50 9 -27 27 -62 41 -77 120 -139 203 -273 274 -445 17
-43 38 -78 45 -78 11 0 45 -71 45 -95 0 -5 -14 10 -31 33 -30 40 -67 61 -88
48 -5 -4 -13 -28 -17 -54 -3 -26 -14 -55 -23 -66 -10 -11 -16 -36 -16 -65 0
-36 -3 -46 -17 -46 -27 0 -29 -10 -12 -51 21 -51 54 -168 54 -194 0 -11 5 -20
12 -20 8 0 9 47 4 179 -7 173 -6 180 13 190 27 15 67 14 100 -4 27 -14 41 -37
57 -100 l8 -30 4 37 c4 51 -33 226 -69 319 -36 93 -85 171 -192 304 -181 225
-205 276 -347 753 -13 44 -32 77 -58 106 -77 84 -149 192 -181 272 -23 59 -39
85 -57 93 -13 6 -24 17 -24 25 0 8 -16 20 -35 26 -20 7 -43 23 -51 36 -26 38
-76 48 -164 30 -49 -9 -79 -11 -85 -5 -7 7 -3 8 10 4 16 -6 16 -3 -5 14 -14
11 -28 21 -32 21 -4 0 -9 107 -10 238 -3 232 -6 250 -28 165 l-10 -41 -31 15
c-30 15 -82 14 -134 -2 -18 -5 -23 1 -38 49 -10 31 -20 56 -23 56 -2 0 -4 -97
-4 -215z m41 9 c-15 -42 -14 -60 5 -90 19 -28 12 -43 -11 -24 -19 16 -19 7 1
-35 8 -19 14 -44 12 -57 -4 -22 -5 -22 -18 7 -10 21 -15 80 -16 190 l-3 160
20 -60 c17 -48 18 -66 10 -91z m162 64 c15 -11 27 -26 27 -34 0 -8 7 -17 15
-20 9 -4 15 -18 14 -33 l-1 -26 -8 25 c-8 24 -12 21 -14 -10 -1 -19 -72 -58
-83 -46 -4 5 -2 11 6 14 20 7 61 49 61 62 0 18 -56 11 -84 -11 -26 -21 -28
-21 -47 -3 -25 23 -18 60 17 92 29 25 50 23 97 -10z m-102 -108 c39 -35 34
-48 -10 -25 -19 9 -31 23 -31 35 0 26 3 25 41 -10z m159 -57 c-1 -24 -2 -26
-11 -10 -5 9 -7 22 -4 27 10 17 15 11 15 -17z m-161 8 c7 -5 9 -11 4 -14 -6
-4 -19 0 -29 8 -15 11 -16 14 -4 15 8 0 21 -4 29 -9z m126 -1 c-3 -5 -15 -10
-26 -10 -11 0 -17 5 -14 10 3 6 15 10 26 10 11 0 17 -4 14 -10z m-85 -35 c0
-17 -4 -23 -15 -19 -11 5 -12 11 -4 25 13 26 19 24 19 -6z m69 -141 c-30 -32
-88 -33 -123 -1 -18 16 -25 35 -29 75 -5 59 0 62 55 32 l37 -20 38 26 38 26 3
-57 c3 -48 -1 -61 -19 -81z m-563 -168 c-12 -19 -29 -56 -36 -83 -8 -26 -20
-59 -27 -73 -12 -24 -13 -23 -13 18 0 66 53 172 85 172 11 0 8 -9 -9 -34z
m-110 -144 c-14 -21 -44 -56 -67 -77 l-42 -40 34 50 c18 28 46 64 61 80 15 17
28 35 29 40 0 6 3 4 6 -3 3 -7 -7 -30 -21 -50z m-192 -209 c-10 -16 -38 -66
-62 -113 -24 -47 -40 -74 -36 -60 13 49 98 200 111 200 3 0 -3 -12 -13 -27z
m-67 -413 c25 -68 67 -276 59 -296 -7 -17 20 -74 34 -74 5 0 36 -53 70 -118
33 -66 90 -166 127 -224 38 -58 73 -114 78 -123 9 -14 3 -38 -24 -104 -29 -73
-36 -101 -39 -183 -2 -54 -7 -96 -11 -94 -13 9 -87 -32 -118 -65 -17 -19 -42
-56 -56 -82 l-24 -49 -22 109 c-12 59 -29 128 -37 152 -8 25 -14 56 -14 71 0
14 -4 30 -9 35 -11 12 -74 322 -116 575 -23 135 -29 276 -16 373 17 126 26
138 28 39 5 -196 127 -706 227 -947 37 -89 31 -47 -15 105 -50 168 -125 462
-143 565 -43 237 -49 345 -26 440 l14 60 6 -55 c4 -31 16 -80 27 -110z m2166
-873 c8 7 47 -25 47 -39 0 -4 -22 -8 -50 -8 -27 0 -50 2 -50 4 0 3 5 17 10 31
8 21 13 25 24 16 7 -6 16 -8 19 -4z m-1883 -402 c0 -29 -5 -37 -32 -51 -18 -9
-50 -34 -70 -55 -20 -21 -40 -35 -43 -30 -8 14 41 117 71 146 14 14 36 25 49
25 22 0 25 -5 25 -35z"/>
<path d="M1480 3000 c0 -6 11 -8 28 -4 39 10 40 14 4 14 -18 0 -32 -5 -32 -10z"/>
<path d="M1550 3006 c0 -2 14 -6 30 -8 17 -3 30 -1 30 4 0 4 -13 8 -30 8 -16
0 -30 -2 -30 -4z"/>
<path d="M1020 1128 c0 -19 2 -20 10 -8 13 19 13 30 0 30 -5 0 -10 -10 -10
-22z"/>
<path d="M1490 2775 c0 -48 -14 -65 -52 -65 -36 0 -55 32 -39 67 10 23 10 24
-11 18 -50 -15 -109 -48 -128 -72 -39 -50 -20 -115 44 -154 l31 -19 -32 0
c-39 0 -133 71 -133 100 0 11 -5 20 -11 20 -16 0 -3 -74 13 -79 7 -2 27 -18
43 -35 l30 -31 125 5 125 5 -77 8 c-63 7 -78 12 -83 28 -4 10 -3 23 0 29 9 15
51 12 65 -5 12 -14 15 -14 31 1 26 23 51 14 73 -27 l20 -36 15 30 c22 42 46
55 71 39 15 -9 26 -10 40 -2 10 5 28 10 40 10 19 0 22 -4 18 -30 -5 -35 -6
-35 32 -15 119 61 77 183 -78 230 -21 6 -23 5 -13 -13 6 -11 8 -29 4 -39 -22
-61 -102 -33 -104 37 0 14 -3 19 -6 13 -7 -19 -30 -16 -42 5 -8 13 -10 9 -11
-23z m-115 -15 c-9 -29 20 -70 49 -70 19 0 25 -6 28 -29 6 -41 -25 -58 -67
-37 -33 17 -61 7 -74 -26 -7 -20 -8 -20 -29 7 -44 56 -20 115 63 158 38 21 38
21 30 -3z m396 -49 c25 -31 24 -66 -2 -102 -24 -34 -39 -37 -39 -9 0 30 -30
41 -68 24 -43 -18 -69 -3 -68 37 1 22 6 29 22 29 34 0 57 24 56 59 l-1 32 41
-23 c22 -13 49 -34 59 -47z m-226 9 c4 -6 -5 -10 -20 -10 -15 0 -24 4 -20 10
3 6 12 10 20 10 8 0 17 -4 20 -10z m-54 -38 c-6 -11 -6 -24 0 -34 6 -11 6 -19
-1 -23 -6 -3 -13 2 -17 12 -3 10 -7 20 -8 23 -6 12 16 51 25 45 6 -4 7 -13 1
-23z m87 -23 c-2 -19 -7 -33 -12 -32 -10 3 -16 62 -8 76 9 18 23 -12 20 -44z
m-30 8 c4 -20 -25 -34 -40 -19 -15 15 -1 44 19 40 10 -2 19 -11 21 -21z m-3
-57 c-3 -5 -15 -10 -26 -10 -10 0 -19 5 -19 10 0 6 12 10 26 10 14 0 23 -4 19
-10z"/>
<path d="M1873 2720 c8 -28 8 -46 0 -62 -6 -13 -13 -30 -16 -38 -3 -9 -24 -29
-47 -45 -37 -26 -53 -30 -143 -35 -109 -7 -69 -15 68 -13 66 1 73 4 106 35 44
41 63 99 48 151 -5 20 -13 39 -18 41 -4 3 -3 -12 2 -34z"/>
<path d="M1931 2656 c-14 -14 -20 -26 -14 -26 6 0 16 7 23 15 11 13 16 12 44
-2 29 -15 30 -15 17 0 -7 10 -19 17 -26 17 -8 0 -15 5 -17 11 -2 5 -14 -1 -27
-15z"/>
<path d="M1105 2640 c10 -11 20 -18 23 -15 7 6 -18 35 -31 35 -5 0 -2 -9 8
-20z"/>
<path d="M1048 2592 c-18 -20 -39 -51 -45 -67 -21 -53 -63 -194 -63 -208 0
-26 49 -69 70 -62 22 7 26 -5 8 -23 -7 -7 -8 -12 -2 -12 6 0 19 16 30 35 10
19 22 35 26 35 3 0 21 22 39 49 l32 50 39 -52 c37 -49 39 -55 32 -97 -12 -73
-10 -178 4 -192 17 -17 15 -83 -4 -99 -13 -10 -17 -10 -26 2 -7 11 -8 9 -3 -6
13 -36 18 -112 6 -95 -8 12 -12 10 -20 -10 -5 -14 -10 -18 -11 -10 0 8 -7 -1
-14 -20 -24 -62 -61 -145 -67 -150 -10 -8 -9 -177 0 -202 l10 -23 1 25 c4 114
49 265 95 320 7 8 20 38 30 65 10 28 22 55 26 60 4 6 11 39 15 75 6 55 9 61
17 42 7 -15 7 -37 0 -68 l-11 -45 37 -23 c47 -30 138 -137 176 -208 5 -10 13
-18 18 -18 9 0 4 10 -28 55 -11 17 -22 40 -23 52 -3 18 3 23 35 28 63 11 62
15 -3 10 l-62 -6 -41 43 c-22 24 -41 50 -41 59 0 8 -5 20 -12 27 -8 8 -9 12
-1 12 6 0 13 -5 15 -11 2 -6 13 -9 23 -7 18 4 17 6 -7 16 -33 14 -43 29 -29
46 7 8 10 20 9 27 -5 21 263 25 314 5 37 -16 98 -22 85 -10 -3 4 -21 10 -39
14 l-33 8 42 1 c23 1 45 -3 48 -9 12 -19 35 -10 35 13 1 21 1 22 15 3 13 -17
15 -18 15 -3 0 9 4 17 8 17 12 0 32 71 32 114 0 23 -7 43 -20 56 -11 11 -21
32 -21 48 -1 24 -3 23 -12 -11 -10 -37 -12 -38 -51 -35 -36 3 -41 6 -38 26 2
12 -1 22 -7 22 -5 0 -11 -10 -13 -22 -2 -13 -7 -21 -13 -19 -11 3 -11 6 0 33
4 9 -10 1 -31 -18 -28 -27 -39 -32 -45 -22 -7 10 -12 11 -29 0 -18 -11 -20
-10 -20 17 0 17 -5 33 -11 37 -8 4 -9 -1 -4 -16 5 -16 4 -21 -6 -18 -8 3 -28
1 -46 -4 -27 -7 -36 -5 -53 12 -11 11 -20 24 -20 29 0 11 48 24 61 15 6 -3 26
-3 45 0 28 6 34 11 34 32 0 33 29 94 47 101 8 3 28 -7 45 -23 26 -25 29 -26
19 -7 -6 13 -23 29 -38 37 -25 12 -28 12 -49 -13 -13 -15 -30 -46 -40 -70
l-17 -42 -48 6 c-41 6 -49 4 -58 -14 -16 -29 -14 -52 7 -67 15 -12 14 -13 -11
-14 -18 0 -30 6 -33 18 -3 9 -11 28 -17 41 -10 20 -8 26 18 50 27 25 42 51 30
51 -3 0 -20 -16 -38 -36 -29 -32 -36 -35 -55 -25 -12 6 -28 24 -36 39 -9 15
-15 20 -16 12 0 -25 49 -90 69 -90 13 0 20 -9 23 -31 4 -26 2 -30 -14 -26 -10
3 -18 1 -18 -4 0 -5 -9 -9 -20 -9 -18 0 -19 -6 -15 -71 5 -96 15 -100 16 -8
l1 74 12 -75 11 -75 -40 -5 c-45 -6 -50 -1 -59 54 -8 43 8 96 29 96 7 0 12 8
10 18 -2 9 -7 38 -10 65 -4 26 -10 45 -15 42 -14 -9 -70 96 -70 130 0 17 5 47
11 68 6 22 8 41 6 44 -8 7 -37 -41 -42 -68 -27 -140 -46 -179 -103 -212 -30
-18 -34 -18 -57 -3 -20 13 -23 20 -16 35 6 10 11 38 12 62 3 54 56 175 93 208
14 14 26 28 26 33 0 17 -19 6 -52 -30z m784 -423 c8 -50 -15 -103 -46 -107
-24 -3 -26 -1 -26 37 0 23 5 41 11 41 7 0 10 14 7 35 -3 25 0 35 12 38 23 5
37 -10 42 -44z m-398 35 c9 -3 16 -10 16 -16 0 -5 -4 -7 -9 -3 -5 3 -11 -9
-13 -27 -3 -32 -4 -33 -53 -33 l-50 0 -3 37 -3 37 48 4 c26 2 49 4 50 5 1 1 8
-1 17 -4z m316 -39 c0 -38 -3 -45 -19 -45 -11 0 -23 5 -27 12 -5 7 -3 8 6 3 9
-5 11 -4 6 3 -10 17 -26 15 -26 -3 0 -8 -9 -15 -20 -15 -11 0 -20 4 -20 9 0 5
-3 22 -6 39 -6 29 -4 31 27 35 82 10 79 11 79 -38z m-139 -17 c1 -69 17 -111
20 -53 l2 40 7 -40 c5 -30 8 -33 9 -13 1 24 4 26 51 26 49 1 50 0 50 -29 l0
-31 -147 7 c-82 4 -152 11 -156 15 -5 4 -7 27 -4 51 l4 44 1 -47 c3 -73 22
-58 22 17 l0 65 70 0 70 0 1 -52z m-181 -53 c0 -7 3 -20 6 -29 5 -13 -2 -16
-34 -16 -55 0 -72 8 -72 34 0 20 5 23 50 24 36 1 50 -3 50 -13z"/>
<path d="M1864 2556 c-4 -10 -2 -48 5 -86 6 -38 8 -77 5 -87 -4 -12 -3 -14 3
-6 6 9 16 -2 34 -37 13 -27 34 -55 47 -61 12 -7 18 -15 13 -18 -5 -3 -1 -16 9
-29 10 -12 21 -18 24 -13 4 5 2 12 -4 16 -19 12 -10 22 14 18 19 -4 28 1 40
25 18 34 22 102 6 102 -5 0 -10 -18 -10 -40 0 -29 -5 -42 -20 -50 -69 -37
-126 40 -140 186 -8 87 -15 109 -26 80z"/>
<path d="M1230 2486 c0 -10 -4 -15 -9 -12 -12 8 -41 -3 -41 -15 0 -6 9 -5 20
1 16 8 20 8 20 -3 0 -23 40 -67 61 -67 16 0 18 4 10 18 -5 10 -21 24 -35 32
-14 7 -26 18 -26 23 0 6 9 2 20 -8 11 -10 20 -15 20 -11 0 4 -9 19 -20 33 -15
20 -20 22 -20 9z"/>
<path d="M1527 2468 c-8 -13 -28 -28 -46 -35 -32 -12 -40 -6 -19 15 6 6 9 14
6 18 -4 3 -13 -7 -22 -23 -8 -15 -15 -24 -16 -20 0 5 -7 1 -16 -8 -29 -28 -7
-28 56 1 52 24 107 74 81 74 -5 0 -15 -10 -24 -22z"/>
<path d="M1807 2430 c-16 -17 -23 -30 -18 -30 14 0 51 37 51 50 0 14 -1 13
-33 -20z"/>
<path d="M1786 2344 l-39 -46 -25 29 c-13 15 -23 24 -21 18 6 -14 32 -69 35
-73 5 -7 53 33 54 44 0 6 10 23 21 38 37 47 15 38 -25 -10z"/>
<path d="M1280 2371 c0 -5 6 -14 14 -20 11 -9 16 -9 21 0 4 6 1 15 -6 20 -18
11 -29 11 -29 0z"/>
<path d="M1622 2314 c-17 -12 -26 -13 -37 -4 -8 6 -16 7 -19 2 -11 -19 56 -30
81 -14 7 4 9 13 4 20 -5 9 -12 8 -29 -4z"/>
<path d="M924 2275 c2 -22 7 -53 11 -69 7 -27 7 -28 -14 -16 -15 8 -20 17 -16
31 4 10 2 19 -4 19 -5 0 -12 -9 -16 -19 -3 -11 -16 -22 -28 -24 -14 -3 -9 -5
14 -6 19 0 40 -6 47 -13 14 -14 16 -42 2 -33 -5 3 -10 1 -10 -4 0 -6 5 -11 11
-11 7 0 9 -10 7 -25 -7 -35 8 -41 16 -7 3 15 10 34 16 42 16 23 53 -25 48 -62
-3 -15 -1 -25 4 -22 4 3 8 11 8 18 0 8 7 19 15 26 9 8 15 29 15 56 0 23 5 46
10 49 6 3 10 14 10 23 0 36 -31 -29 -37 -77 l-6 -50 -33 36 c-36 38 -41 49
-48 106 -7 55 -25 82 -22 32z"/>
<path d="M2054 2215 c-18 -44 -18 -43 8 -101 27 -61 38 -34 13 32 -13 34 -14
51 -6 74 14 41 3 38 -15 -5z"/>
<path d="M2084 2204 c-18 -14 -18 -15 4 -4 13 6 35 10 50 8 25 -3 27 -7 33
-63 3 -33 7 -49 8 -35 5 46 -1 95 -12 102 -20 13 -62 9 -83 -8z"/>
<path d="M1950 2179 c0 -19 5 -41 10 -49 7 -10 8 -1 4 30 -8 56 -14 64 -14 19z"/>
<path d="M1241 2088 c2 -30 2 -30 6 -6 2 15 12 29 21 31 12 3 10 5 -5 6 -20 1
-23 -4 -22 -31z"/>
<path d="M840 2074 c0 -14 4 -23 9 -20 5 3 7 15 4 26 -7 28 -13 25 -13 -6z"/>
<path d="M2201 2078 c-1 -15 4 -39 10 -55 6 -15 15 -61 20 -102 8 -74 27 -146
35 -138 3 3 0 42 -6 88 -11 91 -58 253 -59 207z"/>
<path d="M2126 1901 c4 -119 2 -135 -13 -147 -10 -7 -13 -14 -6 -14 15 0 53
48 53 69 0 13 -2 13 -9 2 -6 -9 -9 2 -9 30 0 24 -5 78 -10 119 -9 68 -10 63
-6 -59z"/>
<path d="M892 1959 c-17 -90 -14 -129 4 -49 8 36 13 76 11 90 -1 15 -8 -2 -15
-41z"/>
<path d="M2050 1975 c19 -19 36 -35 39 -35 3 0 -10 16 -29 35 -19 19 -36 35
-39 35 -3 0 10 -16 29 -35z"/>
<path d="M1745 1958 c4 -13 11 -27 15 -32 5 -5 -8 -24 -27 -42 -39 -37 -52
-39 -32 -6 11 17 10 27 -3 54 l-17 33 6 -33 c9 -49 -12 -80 -56 -85 -35 -4
-35 -4 7 -5 40 -2 41 -3 30 -22 -7 -11 -21 -23 -32 -26 -11 -4 -14 -9 -8 -13
7 -4 3 -20 -13 -46 -13 -22 -31 -53 -40 -70 l-16 -30 21 25 c11 14 42 61 68
104 36 60 60 87 100 114 52 35 58 49 42 87 -8 19 -9 18 -9 -4 -1 -20 -3 -22
-16 -11 -13 11 -13 15 -3 21 10 7 8 9 -5 9 -14 0 -17 -5 -12 -22z"/>
<path d="M2161 1923 c-1 -65 7 -76 30 -45 7 9 9 13 4 9 -6 -5 -14 12 -21 45
l-12 53 -1 -62z"/>
<path d="M840 1930 c-2 -41 -3 -42 -9 -15 -7 29 -7 29 -15 7 -11 -34 8 -147
23 -138 4 3 23 -10 41 -29 36 -37 53 -45 44 -20 -4 8 -12 15 -20 15 -8 0 -14
10 -14 26 0 16 4 23 12 18 7 -4 8 -3 4 5 -4 6 0 25 8 43 9 17 16 38 15 47 0
17 -4 11 -28 -53 -11 -28 -12 -28 -31 -11 -21 19 -28 7 -8 -13 6 -6 9 -14 7
-17 -3 -3 -12 7 -19 21 -9 15 -10 28 -5 32 6 4 7 33 4 67 -5 58 -6 59 -9 15z"/>
<path d="M1824 1896 c3 -21 12 -43 20 -50 50 -37 110 -281 107 -431 -3 -152
-3 -208 -1 -255 2 -44 3 -45 9 -10 l6 35 32 -71 c21 -44 35 -95 39 -135 4 -35
11 -71 16 -79 6 -10 7 -6 4 15 -3 17 -6 59 -7 95 -2 56 -7 73 -40 125 -46 72
-61 132 -47 182 15 56 -3 319 -27 388 -14 40 -57 125 -69 138 -7 6 -20 30 -29
52 l-18 40 5 -39z"/>
<path d="M1371 1894 c-1 -12 7 -31 17 -43 15 -20 22 -21 72 -13 l55 10 -57 1
c-55 1 -59 2 -72 34 -12 26 -15 28 -15 11z"/>
<path d="M2353 1855 c3 -6 11 -48 17 -95 6 -46 17 -102 24 -124 7 -23 19 -61
26 -86 8 -25 35 -93 62 -152 26 -59 48 -111 48 -116 0 -5 8 -20 18 -33 10 -13
33 -62 51 -109 18 -47 39 -98 46 -115 26 -61 27 -73 6 -84 -16 -9 -20 -7 -25
12 -2 12 -3 -16 -2 -62 3 -74 1 -81 -10 -58 -7 13 -20 27 -29 31 -20 7 -20 58
0 97 15 29 15 29 -4 17 -25 -15 -39 -4 -21 17 18 22 -7 20 -43 -4 -16 -10 -36
-17 -46 -14 -29 7 -62 -66 -68 -154 l-6 -76 -18 34 c-10 19 -18 29 -19 22 0
-7 -27 3 -66 23 -36 19 -74 34 -85 34 -10 0 -19 6 -19 13 0 7 -7 22 -15 33
-13 17 -14 16 -4 -14 6 -18 8 -36 4 -40 -4 -4 -10 -2 -12 4 -2 6 -11 20 -19
30 -9 10 -13 13 -9 6 9 -18 -45 -37 -67 -23 -15 10 -18 7 -18 -15 0 -15 -6
-32 -14 -38 -10 -8 -16 -44 -20 -116 -4 -58 -8 -114 -11 -125 -2 -11 -4 -50
-4 -86 -1 -56 -4 -67 -19 -71 -16 -4 -21 4 -31 46 -35 150 -44 176 -62 181
-10 3 -23 23 -30 43 -6 20 -24 67 -40 103 -34 80 -46 135 -53 254 l-5 90 30
-63 c17 -34 34 -62 40 -62 7 0 -16 53 -53 120 -18 32 -48 102 -48 111 0 6 5 7
11 4 6 -4 -1 15 -14 41 -13 27 -34 94 -46 149 -20 93 -31 127 -31 94 0 -13 13
-74 26 -124 3 -11 -11 7 -31 40 -20 33 -33 49 -30 36 6 -18 4 -22 -6 -15 -8 4
1 -11 20 -35 19 -24 51 -90 74 -149 39 -105 63 -232 44 -232 -6 0 -7 -32 -3
-80 5 -65 13 -92 45 -152 52 -99 70 -156 50 -169 -22 -14 -39 -11 -45 9 -9 27
-25 64 -46 105 -11 20 -16 37 -12 37 3 0 2 6 -4 12 -17 21 -99 184 -112 222
-6 20 -15 36 -18 36 -4 0 -13 12 -20 28 -12 26 -57 88 -50 67 2 -5 44 -91 92
-190 82 -167 156 -332 156 -345 -1 -3 -8 4 -18 15 -9 12 -31 27 -49 34 -17 7
-41 24 -54 37 -12 13 -25 21 -28 16 -3 -4 -25 -12 -48 -18 -38 -10 -42 -9 -49
10 -6 21 -7 21 -11 -2 -2 -12 -9 -20 -14 -17 -5 4 -9 0 -9 -7 0 -14 -40 -54
-40 -40 0 4 -13 -8 -29 -27 -27 -33 -30 -34 -45 -18 -9 9 -34 22 -56 28 -39
12 -51 27 -79 102 -8 20 -8 35 0 50 7 15 2 12 -15 -8 -14 -16 -30 -43 -37 -60
-7 -16 -25 -43 -40 -60 -27 -30 -69 -155 -69 -209 0 -13 -3 -31 -6 -40 -7 -19
-34 -21 -34 -3 -3 95 2 475 6 493 4 14 11 21 18 17 6 -3 8 -2 3 2 -7 8 39 65
53 65 3 0 5 -33 4 -72 -1 -40 0 -61 3 -45 2 15 7 27 11 28 4 0 15 2 24 4 10 2
28 -9 42 -26 42 -50 39 -32 -4 23 -23 28 -48 64 -56 80 -8 16 -19 26 -24 23
-4 -3 -13 7 -19 22 -11 27 -11 27 -7 -7 4 -32 1 -38 -47 -74 -28 -22 -47 -41
-42 -43 11 -3 8 -263 -3 -263 -4 0 -7 -48 -7 -108 0 -82 -4 -115 -18 -141 -9
-19 -17 -46 -17 -60 l1 -26 13 30 c16 38 33 51 70 53 24 2 27 -1 23 -21 -3
-12 -9 -50 -13 -84 -6 -57 -8 -62 -25 -52 -11 5 -24 7 -30 4 -16 -11 11 -36
35 -33 17 2 22 -3 24 -29 3 -27 -2 -36 -29 -52 -25 -15 -37 -17 -60 -9 -39 13
-37 38 5 118 37 71 62 164 33 124 -9 -11 -27 -46 -41 -77 -14 -31 -29 -57 -34
-57 -16 0 -41 -73 -35 -102 6 -32 39 -48 99 -48 83 0 125 39 104 94 -16 42
-13 151 4 166 11 8 13 24 9 58 -4 34 3 77 22 152 15 58 30 109 32 113 8 13
123 -106 135 -140 19 -51 29 -39 12 15 -9 26 -18 55 -21 65 -10 31 28 19 70
-24 23 -23 43 -36 45 -29 10 29 72 97 107 117 45 25 114 30 156 10 49 -23 108
-72 131 -109 13 -21 25 -38 29 -38 3 0 5 15 5 33 0 42 12 87 23 87 5 0 11 -15
13 -32 3 -18 12 -67 21 -108 20 -100 31 -208 28 -300 -2 -103 13 -122 101
-128 54 -3 66 -1 86 18 30 28 28 63 -9 140 -17 36 -34 83 -39 105 -5 22 -16
60 -25 85 -16 42 -16 54 -1 175 9 72 17 150 19 175 2 43 3 45 41 53 93 22 219
-37 288 -135 24 -35 47 -71 51 -81 3 -9 11 -17 16 -17 6 0 3 17 -7 37 -23 54
-23 212 1 275 29 75 42 78 73 16 14 -29 42 -74 60 -101 19 -26 34 -49 34 -51
0 -2 14 -19 32 -37 17 -19 29 -27 26 -18 -24 65 -19 186 8 214 13 13 12 19 -5
52 -10 21 -35 79 -54 128 -19 50 -62 147 -95 217 -92 194 -152 377 -152 469 0
19 -7 44 -16 55 -8 10 -13 14 -11 9z m-1073 -1232 c0 -10 -13 -4 -39 18 -22
19 -40 37 -40 40 -1 4 6 24 15 45 l16 39 24 -64 c13 -35 24 -70 24 -78z m736
-224 c3 -6 1 -16 -4 -21 -8 -8 -2 -29 22 -72 40 -72 70 -161 62 -181 -8 -23
-78 -19 -110 6 -20 15 -26 29 -24 52 1 18 5 37 9 42 9 12 6 41 -4 51 -13 13
-8 122 6 127 21 9 36 7 43 -4z"/>
<path d="M1294 1828 c-30 -33 -83 -153 -74 -168 5 -9 9 -9 14 -1 4 6 13 8 19
5 7 -4 9 -4 5 0 -4 5 9 42 28 84 39 85 42 118 8 80z"/>
<path d="M785 1786 c5 -23 3 -42 -5 -51 -9 -11 -9 -15 -1 -15 7 0 10 -4 7 -9
-3 -5 3 -11 14 -14 18 -5 25 3 21 25 0 4 6 5 15 1 8 -3 13 -12 10 -20 -3 -8
-6 -18 -6 -23 0 -5 -16 -6 -35 -3 -21 3 -35 1 -35 -5 0 -14 62 -22 78 -10 6 6
12 17 12 25 0 19 19 6 31 -21 7 -17 8 -15 6 14 -1 19 -6 35 -12 35 -12 1 -85
74 -85 85 0 5 -5 12 -11 15 -7 5 -8 -5 -4 -29z"/>
<path d="M2190 1798 c0 -19 -44 -78 -58 -78 -7 0 -10 -5 -7 -10 4 -6 11 -8 16
-4 5 3 19 -5 30 -18 l21 -23 -17 28 c-19 32 -11 52 10 24 10 -13 14 -15 18 -5
4 10 6 10 6 1 1 -7 5 -13 10 -13 14 0 7 40 -9 51 -13 9 -12 10 2 5 10 -3 20
-1 23 3 2 5 -4 11 -15 14 -13 3 -18 10 -14 21 3 9 1 16 -5 16 -6 0 -11 -5 -11
-12z"/>
<path d="M2262 1720 c0 -19 2 -27 5 -17 2 9 2 25 0 35 -3 9 -5 1 -5 -18z"/>
<path d="M1165 1659 c-22 -43 -28 -70 -31 -143 l-3 -91 15 70 c9 39 25 100 36
138 12 37 18 70 15 73 -3 3 -18 -18 -32 -47z"/>
<path d="M2200 1672 c0 -14 11 -21 26 -15 8 3 11 9 8 14 -7 11 -34 12 -34 1z"/>
<path d="M1477 1628 c-39 -97 -46 -119 -39 -114 5 3 17 27 27 53 9 26 25 54
33 61 14 11 14 12 0 12 -9 0 -18 -6 -21 -12z"/>
<path d="M2262 1604 c3 -5 45 -97 93 -204 89 -200 153 -316 200 -360 18 -17
24 -20 19 -7 -3 9 -10 17 -15 17 -5 0 -9 4 -9 9 0 5 -18 36 -40 69 -37 57 -62
105 -92 180 -7 17 -16 32 -20 32 -5 0 -8 6 -8 13 0 6 -15 44 -34 82 -18 39
-43 91 -55 117 -11 26 -26 50 -33 54 -6 4 -9 3 -6 -2z"/>
<path d="M1882 1570 c0 -19 2 -27 5 -17 2 9 2 25 0 35 -3 9 -5 1 -5 -18z"/>
<path d="M1388 1560 c-4 -14 -9 -54 -12 -90 l-6 -65 16 65 c8 36 13 76 12 90
l-3 25 -7 -25z"/>
<path d="M1877 1456 c-7 -96 -43 -191 -78 -208 -14 -7 -28 -17 -30 -23 -2 -5
-8 -9 -12 -7 -5 1 -6 -2 -3 -7 11 -17 45 -19 59 -2 33 38 70 156 75 239 6 102
-3 109 -11 8z"/>
<path d="M1972 1513 c26 -53 55 -121 74 -178 23 -69 25 -60 5 21 -11 43 -68
164 -77 164 -3 0 -4 -3 -2 -7z"/>
<path d="M1186 1364 c4 -27 20 -69 35 -95 16 -25 29 -52 29 -60 0 -8 16 4 35
25 20 21 33 42 30 45 -4 3 -11 -2 -16 -12 -26 -45 -88 13 -97 90 -2 24 -9 46
-14 49 -6 4 -7 -13 -2 -42z"/>
<path d="M1358 1340 c-8 -33 -11 -60 -7 -60 4 0 10 14 13 30 3 17 9 44 12 60
10 54 -3 32 -18 -30z"/>
<path d="M2722 1330 c3 -8 15 -45 27 -82 23 -68 35 -86 46 -69 8 13 -43 137
-63 153 -13 11 -15 11 -10 -2z"/>
<path d="M1900 1299 c7 -11 14 -19 16 -16 7 7 -7 37 -17 37 -6 0 -5 -9 1 -21z"/>
<path d="M1621 1246 c12 -20 23 -36 25 -36 7 0 -25 58 -36 65 -5 3 -1 -10 11
-29z"/>
<path d="M2074 1236 c3 -14 15 -66 27 -116 12 -50 23 -89 25 -87 6 6 -46 227
-53 227 -3 0 -2 -11 1 -24z"/>
<path d="M1148 1214 c-5 -4 -8 -19 -8 -33 0 -21 -2 -23 -10 -11 -8 12 -10 12
-10 -5 0 -18 36 -52 45 -43 2 2 1 25 -3 52 -4 26 -10 44 -14 40z"/>
<path d="M1211 1181 c-7 -13 -16 -44 -20 -70 -5 -37 -10 -47 -27 -49 -17 -2
-23 4 -29 30 -4 18 -9 28 -12 21 -6 -16 16 -93 27 -93 16 0 50 43 56 70 3 14
10 34 16 46 5 12 8 32 6 45 l-3 24 -14 -24z"/>
<path d="M1808 1184 c-7 -6 31 -94 51 -118 23 -27 46 -12 47 30 1 33 1 34 -3
7 -2 -18 -8 -33 -12 -33 -16 0 -43 40 -37 55 6 17 -35 70 -46 59z"/>
<path d="M1900 1175 c0 -13 -4 -14 -22 -4 -21 11 -22 11 -9 -4 12 -15 41 -24
41 -13 0 2 3 11 6 20 3 9 1 16 -5 16 -6 0 -11 -7 -11 -15z"/>
<path d="M1280 1122 c-14 -20 -28 -45 -33 -56 -4 -10 -16 -31 -27 -46 -11 -16
-16 -31 -12 -34 5 -3 22 19 37 49 15 30 29 55 31 55 3 0 -4 -159 -10 -221 l-4
-36 22 21 c13 12 19 25 14 31 -10 12 -11 235 0 235 4 0 8 9 9 20 1 11 1 20 0
20 -1 0 -13 -17 -27 -38z"/>
<path d="M1062 1047 c-26 -62 -29 -99 -7 -91 8 3 17 14 20 24 11 36 22 120 15
120 -3 0 -16 -24 -28 -53z"/>
<path d="M1330 1078 c0 -10 59 -138 64 -138 5 0 -48 127 -57 137 -4 3 -7 4 -7
1z"/>
<path d="M1930 1055 c0 -8 -8 -22 -18 -32 -10 -10 -39 -45 -63 -78 -42 -55
-44 -62 -32 -85 l13 -25 0 34 c0 29 16 59 77 140 2 2 24 -14 50 -36 56 -46 94
-68 45 -26 -18 15 -32 33 -32 39 0 7 -8 11 -17 10 -15 -1 -17 6 -15 37 2 20 0
37 -3 37 -3 0 -5 -7 -5 -15z"/>
<path d="M2050 1054 c0 -14 27 -50 33 -44 3 3 -3 16 -13 30 -11 14 -20 20 -20
14z"/>
<path d="M1466 965 c8 -37 14 -45 14 -19 0 10 -5 26 -10 34 -8 11 -9 7 -4 -15z"/>
</g>
</svg>
